# xmcd
#
# Track frame offsets: 
#        150
#        19241
#        33162
#        47990
#        65284
#        77502
#        97505
#        110271
#        127349
#        143982
#        165013
#        179550
#
# Disc length: 2589 seconds
#
# Revision: 3
# Processed by: cddbd v1.5.2PL0 Copyright (c) Steve Scherf et al.
# Submitted via: ExactAudioCopy v0.99pb5
#
DISCID=920a1b0c
DTITLE=Marc Cohn - Listening Booth:1970
DYEAR=2010
DGENRE=Folk/Rock
TTITLE0=Wild World
TTITLE1=Look at Me
TTITLE2=Maybe I'm Amazed
TTITLE3=Make It with You (with India.Arie)
TTITLE4=The Letter
TTITLE5=The Only Living Boy in New York
TTITLE6=After Midnight
TTITLE7=The Tears of a Clown (with Kristina Train)
TTITLE8=No Matter What (with Aimee Mann)
TTITLE9=New Speedway Boogie (with Jim Lauderdale)
TTITLE10=Into the Mystic
TTITLE11=Long as I Can See the Light
EXTD=
EXTT0=
EXTT1=
EXTT2=
EXTT3=
EXTT4=
EXTT5=
EXTT6=
EXTT7=
EXTT8=
EXTT9=
EXTT10=
EXTT11=
PLAYORDER=
